<?xml version="1.0" encoding="UTF-8"?>
<svg width="72px" height="72px" viewBox="0 0 72 72" version="1.1" xmlns="http://www.w3.org/2000/svg" xmlns:xlink="http://www.w3.org/1999/xlink">
    <title>icon</title>
    <g id="Page-1" stroke="none" stroke-width="1" fill="none" fill-rule="evenodd">
        <g id="icon" fill="#D54144" fill-rule="nonzero">
            <path d="M35.881139,64.5857085 C35.8808949,64.5857085 35.8808949,64.5857085 35.8808949,64.5857085 C20.0277153,64.5857085 7.17608136,51.7343186 7.17608136,35.8808949 C7.17608136,20.0277153 20.0277153,7.17608136 35.8808949,7.17608136 C35.8808949,7.17608136 35.8808949,7.17608136 35.881139,7.17608136 C51.7343186,7.17608136 64.5857085,20.0277153 64.5857085,35.8808949 C64.5857085,51.7343186 51.7343186,64.5857085 35.881139,64.5857085 Z M65.840461,7.90047458 C65.4509288,7.01914576 64.7467932,6.31037288 63.8652203,5.92108475 C54.9752949,1.97548475 45.4293153,0.00244067797 35.881139,0 C35.8808949,0 35.8808949,0 35.8808949,0 C26.3324746,0.00244067797 16.7864949,1.97548475 7.89681356,5.92108475 C7.01524068,6.31037288 6.31110508,7.01914576 5.92157288,7.90047458 C1.97377627,16.7862508 0.00073220339,26.3300339 0,35.8762576 L0,35.8855322 C0.00073220339,45.4317559 1.97377627,54.975539 5.92157288,63.8613153 C6.31110508,64.7428881 7.01524068,65.4514169 7.89681356,65.8411932 C16.7864949,69.7865492 26.3324746,71.7595932 35.8808949,71.7617898 C35.8808949,71.7617898 35.8808949,71.7617898 35.881139,71.7617898 C45.4293153,71.7595932 54.9752949,69.7865492 63.8652203,65.8411932 C64.7467932,65.4514169 65.4509288,64.7428881 65.840461,63.8613153 C69.7880136,54.975539 71.7617898,45.4317559 71.7617898,35.8855322 L71.7617898,35.8762576 C71.7617898,26.3300339 69.7880136,16.7862508 65.840461,7.90047458 L65.840461,7.90047458 Z" id="Fill-21"></path>
            <path d="M52.4194169,44.6790508 C51.7377356,43.9976136 50.9154712,43.4570034 49.9989966,43.1043254 C49.6568136,42.9720407 49.0363932,43.3998915 48.7488814,43.5656136 C48.3581288,43.7911322 47.9890983,44.0539932 47.6486237,44.3502915 C47.3537898,44.6070508 47.0838508,44.8916339 46.8075661,45.1676746 C46.2340068,45.741478 45.6604475,46.3150373 45.0866441,46.8888407 C42.5952,48.9758644 39.3854644,50.2333017 35.881139,50.2333017 C35.8808949,50.2333017 35.8808949,50.2333017 35.8808949,50.2333017 C32.3763254,50.2333017 29.1665898,48.9758644 26.6751458,46.8888407 C26.1015864,46.3150373 25.5280271,45.741478 24.9542237,45.1676746 C24.6781831,44.8916339 24.408,44.6070508 24.1131661,44.3502915 C23.7729356,44.0539932 23.403661,43.7911322 23.0129085,43.5656136 C22.7256407,43.3998915 22.1049763,42.9720407 21.7627932,43.1043254 C20.8463186,43.4570034 20.0240542,43.9976136 19.3423729,44.6790508 C18.6606915,45.3607322 18.1203254,46.1832407 17.7676475,47.0994712 C17.6736814,47.3425627 17.8728407,47.6845017 18.0051254,47.8814644 C18.5613559,48.7083661 19.1754305,49.4932881 19.8383186,50.2333017 C22.9665356,53.7139525 27.1884203,56.1331525 31.788122,57.0193627 C33.1358644,57.2788068 34.5085017,57.4088949 35.8808949,57.4088949 C37.2535322,57.4088949 38.6259254,57.2788068 39.9739119,57.0193627 C44.5736136,56.1331525 48.7954983,53.7139525 51.9237153,50.2333017 C52.5863593,49.4932881 53.2004339,48.7083661 53.7569085,47.8814644 C53.8891932,47.6845017 54.0881085,47.3425627 53.9941424,47.0994712 C53.6417085,46.1832407 53.1010983,45.3607322 52.4194169,44.6790508" id="Fill-23"></path>
            <path d="M54.5010712,22.0268746 C54.3187525,21.9541424 54.1335051,21.8897085 53.946061,21.8325966 C53.0622915,21.5621695 52.1631458,21.5326373 51.2500881,21.4786983 C46.1266169,21.1755661 41.0207186,20.8180068 35.881139,20.8180068 C35.881139,20.8180068 35.881139,20.8180068 35.8808949,20.8180068 C30.7413153,20.8180068 25.6354169,21.1755661 20.5117017,21.4786983 C19.5986441,21.5326373 18.6997424,21.5621695 17.8157288,21.8325966 C17.6282847,21.8897085 17.4430373,21.9541424 17.2609627,22.0268746 C17.100122,22.0910644 16.9165831,22.1469559 16.840678,22.3185356 C16.4501695,23.1976678 16.2534508,24.1409898 16.2489723,25.0855322 C16.2441763,25.9649085 16.4108746,26.8467254 16.7352407,27.6636203 C16.8087051,27.8486237 16.8589831,28.0126373 17.0381288,28.1127051 C17.2226441,28.2157017 17.4425492,28.2801356 17.6421966,28.346522 C18.0910373,28.4958915 18.5562305,28.5996203 19.026061,28.6545356 C19.7301966,28.7367864 20.4470237,28.7960949 21.1560407,28.8754169 C22.0978983,28.9630373 23.0536678,29.0421153 24.0218847,29.113139 C26.2970847,29.2795932 28.6420881,29.3991864 31.0420068,29.4682576 L31.8620746,36.7927322 C31.9489627,37.5678915 32.0358508,38.3428068 32.1224949,39.1179661 C32.2413559,40.1799051 32.3267797,41.2660068 32.7997831,42.2447186 C32.911322,42.4753627 33.2203119,42.544678 33.4426576,42.6259525 C33.7035661,42.721139 33.9700881,42.8014373 34.2405153,42.8653831 C34.7774644,42.9927864 35.3290576,43.0569763 35.8808949,43.0572203 C36.4327322,43.0569763 36.9845695,42.9927864 37.5215186,42.8653831 C37.7917017,42.8014373 38.0582237,42.721139 38.3193763,42.6259525 C38.541478,42.544678 38.8507119,42.4753627 38.9620068,42.2447186 C39.4352542,41.2660068 39.5204339,40.1799051 39.6392949,39.1179661 C39.7261831,38.3428068 39.8130712,37.5678915 39.8997153,36.7927322 L40.7200271,29.4682576 C43.1197017,29.3991864 45.4647051,29.2795932 47.7399051,29.113139 C48.708122,29.0421153 49.6638915,28.9630373 50.6059932,28.8754169 C51.3150102,28.7960949 52.0315932,28.7367864 52.7357288,28.6545356 C53.2058034,28.5996203 53.6707525,28.4958915 54.1198373,28.346522 C54.3192407,28.2801356 54.5393898,28.2157017 54.7239051,28.1127051 C54.9030508,28.0126373 54.9530847,27.8486237 55.0265492,27.6636203 C55.3511593,26.8467254 55.5178576,25.9649085 55.5128485,25.0855322 C55.5085831,24.1409898 55.3118644,23.1976678 54.9211119,22.3185356 C54.8454508,22.1469559 54.6619119,22.0910644 54.5010712,22.0268746" id="Fill-24"></path>
        </g>
    </g>
</svg>