<?xml version="1.0" encoding="UTF-8"?>
<svg width="774px" height="72px" viewBox="0 0 774 72" version="1.1" xmlns="http://www.w3.org/2000/svg" xmlns:xlink="http://www.w3.org/1999/xlink">
    <title>out-horizontal-logo</title>
    <g id="Page-1" stroke="none" stroke-width="1" fill="none" fill-rule="evenodd">
        <g id="Artboard" fill-rule="nonzero">
            <g id="out-horizontal-logo">
                <g id="icon" fill="#D54144">
                    <path d="M35.881139,64.5857085 C35.8808949,64.5857085 35.8808949,64.5857085 35.8808949,64.5857085 C20.0277153,64.5857085 7.17608136,51.7343186 7.17608136,35.8808949 C7.17608136,20.0277153 20.0277153,7.17608136 35.8808949,7.17608136 C35.8808949,7.17608136 35.8808949,7.17608136 35.881139,7.17608136 C51.7343186,7.17608136 64.5857085,20.0277153 64.5857085,35.8808949 C64.5857085,51.7343186 51.7343186,64.5857085 35.881139,64.5857085 Z M65.840461,7.90047458 C65.4509288,7.01914576 64.7467932,6.31037288 63.8652203,5.92108475 C54.9752949,1.97548475 45.4293153,0.00244067797 35.881139,0 C35.8808949,0 35.8808949,0 35.8808949,0 C26.3324746,0.00244067797 16.7864949,1.97548475 7.89681356,5.92108475 C7.01524068,6.31037288 6.31110508,7.01914576 5.92157288,7.90047458 C1.97377627,16.7862508 0.00073220339,26.3300339 0,35.8762576 L0,35.8855322 C0.00073220339,45.4317559 1.97377627,54.975539 5.92157288,63.8613153 C6.31110508,64.7428881 7.01524068,65.4514169 7.89681356,65.8411932 C16.7864949,69.7865492 26.3324746,71.7595932 35.8808949,71.7617898 C35.8808949,71.7617898 35.8808949,71.7617898 35.881139,71.7617898 C45.4293153,71.7595932 54.9752949,69.7865492 63.8652203,65.8411932 C64.7467932,65.4514169 65.4509288,64.7428881 65.840461,63.8613153 C69.7880136,54.975539 71.7617898,45.4317559 71.7617898,35.8855322 L71.7617898,35.8762576 C71.7617898,26.3300339 69.7880136,16.7862508 65.840461,7.90047458 L65.840461,7.90047458 Z" id="Fill-21"></path>
                    <path d="M52.4194169,44.6790508 C51.7377356,43.9976136 50.9154712,43.4570034 49.9989966,43.1043254 C49.6568136,42.9720407 49.0363932,43.3998915 48.7488814,43.5656136 C48.3581288,43.7911322 47.9890983,44.0539932 47.6486237,44.3502915 C47.3537898,44.6070508 47.0838508,44.8916339 46.8075661,45.1676746 C46.2340068,45.741478 45.6604475,46.3150373 45.0866441,46.8888407 C42.5952,48.9758644 39.3854644,50.2333017 35.881139,50.2333017 C35.8808949,50.2333017 35.8808949,50.2333017 35.8808949,50.2333017 C32.3763254,50.2333017 29.1665898,48.9758644 26.6751458,46.8888407 C26.1015864,46.3150373 25.5280271,45.741478 24.9542237,45.1676746 C24.6781831,44.8916339 24.408,44.6070508 24.1131661,44.3502915 C23.7729356,44.0539932 23.403661,43.7911322 23.0129085,43.5656136 C22.7256407,43.3998915 22.1049763,42.9720407 21.7627932,43.1043254 C20.8463186,43.4570034 20.0240542,43.9976136 19.3423729,44.6790508 C18.6606915,45.3607322 18.1203254,46.1832407 17.7676475,47.0994712 C17.6736814,47.3425627 17.8728407,47.6845017 18.0051254,47.8814644 C18.5613559,48.7083661 19.1754305,49.4932881 19.8383186,50.2333017 C22.9665356,53.7139525 27.1884203,56.1331525 31.788122,57.0193627 C33.1358644,57.2788068 34.5085017,57.4088949 35.8808949,57.4088949 C37.2535322,57.4088949 38.6259254,57.2788068 39.9739119,57.0193627 C44.5736136,56.1331525 48.7954983,53.7139525 51.9237153,50.2333017 C52.5863593,49.4932881 53.2004339,48.7083661 53.7569085,47.8814644 C53.8891932,47.6845017 54.0881085,47.3425627 53.9941424,47.0994712 C53.6417085,46.1832407 53.1010983,45.3607322 52.4194169,44.6790508" id="Fill-23"></path>
                    <path d="M54.5010712,22.0268746 C54.3187525,21.9541424 54.1335051,21.8897085 53.946061,21.8325966 C53.0622915,21.5621695 52.1631458,21.5326373 51.2500881,21.4786983 C46.1266169,21.1755661 41.0207186,20.8180068 35.881139,20.8180068 C35.881139,20.8180068 35.881139,20.8180068 35.8808949,20.8180068 C30.7413153,20.8180068 25.6354169,21.1755661 20.5117017,21.4786983 C19.5986441,21.5326373 18.6997424,21.5621695 17.8157288,21.8325966 C17.6282847,21.8897085 17.4430373,21.9541424 17.2609627,22.0268746 C17.100122,22.0910644 16.9165831,22.1469559 16.840678,22.3185356 C16.4501695,23.1976678 16.2534508,24.1409898 16.2490773,25.0855322 C16.2441763,25.9649085 16.4108746,26.8467254 16.7352407,27.6636203 C16.8087051,27.8486237 16.8589831,28.0126373 17.0381288,28.1127051 C17.2226441,28.2157017 17.4425492,28.2801356 17.6421966,28.346522 C18.0910373,28.4958915 18.5562305,28.5996203 19.026061,28.6545356 C19.7301966,28.7367864 20.4470237,28.7960949 21.1560407,28.8754169 C22.0978983,28.9630373 23.0536678,29.0421153 24.0218847,29.113139 C26.2970847,29.2795932 28.6420881,29.3991864 31.0420068,29.4682576 L31.8620746,36.7927322 C31.9489627,37.5678915 32.0358508,38.3428068 32.1224949,39.1179661 C32.2413559,40.1799051 32.3267797,41.2660068 32.7997831,42.2447186 C32.911322,42.4753627 33.2203119,42.544678 33.4426576,42.6259525 C33.7035661,42.721139 33.9700881,42.8014373 34.2405153,42.8653831 C34.7774644,42.9927864 35.3290576,43.0569763 35.8808949,43.0572203 C36.4327322,43.0569763 36.9845695,42.9927864 37.5215186,42.8653831 C37.7917017,42.8014373 38.0582237,42.721139 38.3193763,42.6259525 C38.541478,42.544678 38.8507119,42.4753627 38.9620068,42.2447186 C39.4352542,41.2660068 39.5204339,40.1799051 39.6392949,39.1179661 C39.7261831,38.3428068 39.8130712,37.5678915 39.8997153,36.7927322 L40.7200271,29.4682576 C43.1197017,29.3991864 45.4647051,29.2795932 47.7399051,29.113139 C48.708122,29.0421153 49.6638915,28.9630373 50.6059932,28.8754169 C51.3150102,28.7960949 52.0315932,28.7367864 52.7357288,28.6545356 C53.2058034,28.5996203 53.6707525,28.4958915 54.1198373,28.346522 C54.3192407,28.2801356 54.5393898,28.2157017 54.7239051,28.1127051 C54.9030508,28.0126373 54.9530847,27.8486237 55.0265492,27.6636203 C55.3511593,26.8467254 55.5178576,25.9649085 55.5127339,25.0855322 C55.5085831,24.1409898 55.3118644,23.1976678 54.9211119,22.3185356 C54.8454508,22.1469559 54.6619119,22.0910644 54.5010712,22.0268746" id="Fill-24"></path>
                </g>
                <path d="M149.017164,60 C155.311535,60 160.387988,57.8240741 164.246524,53.4722222 C168.105059,49.1203704 170.034327,43.4629629 170.034327,36.5 C170.034327,29.5370371 168.094281,23.8796296 164.21419,19.5277778 C160.334098,15.1759259 155.268423,13 149.017164,13 C142.765905,13 137.700229,15.1759259 133.820138,19.5277778 C129.940046,23.8796296 128,29.5370371 128,36.5 C128,43.4629629 129.929268,49.1203704 133.787804,53.4722222 C137.646339,57.8240741 142.722793,60 149.017164,60 Z M149.017164,55.3509485 C144.188605,55.3509485 140.427071,53.6738934 137.732564,50.3197832 C135.038055,46.965673 133.690801,42.3590786 133.690801,36.5 C133.690801,30.6833785 135.048833,26.0873984 137.764898,22.7120596 C140.480961,19.3367208 144.231717,17.6490515 149.017164,17.6490515 C153.80261,17.6490515 157.542587,19.3367208 160.237096,22.7120596 C162.931603,26.0873984 164.278858,30.6833785 164.278858,36.5 C164.278858,42.3590786 162.931603,46.965673 160.237096,50.3197832 C157.542587,53.6738934 153.80261,55.3509485 149.017164,55.3509485 Z M188.388336,59.2357723 L188.388336,20.4512195 L188.517673,20.4512195 L214.77296,59.2357723 L219.946416,59.2357723 L219.946416,13.7642276 L214.578956,13.7642276 L214.578956,50.0650406 L214.44962,50.0650406 L189.811037,13.7642276 L182.956208,13.7642276 L182.956208,59.2357723 L188.388336,59.2357723 Z M266.10775,59.2357723 L266.10775,54.6504065 L241.275163,54.6504065 L241.275163,13.7642276 L235.713698,13.7642276 L235.713698,59.2357723 L266.10775,59.2357723 Z M292.609952,59.2357723 L292.609952,40.3848238 L310.26437,13.7642276 L304.120891,13.7642276 L290.152561,35.4810298 L290.023224,35.4810298 L275.602217,13.7642276 L269.458738,13.7642276 L287.048487,40.3848238 L287.048487,59.2357723 L292.609952,59.2357723 Z M356.672618,60 C362.665204,60 367.278203,58.3335592 370.511613,55.0006775 C373.745022,51.6677958 375.361727,46.9019874 375.361727,40.7032521 L375.361727,40.7032521 L375.361727,13.7642276 L369.800262,13.7642276 L369.800262,41.0216802 C369.800262,45.6919603 368.679347,49.2477416 366.437516,51.6890244 C364.195686,54.1303071 360.94072,55.3509485 356.672618,55.3509485 C352.447629,55.3509485 349.203442,54.1196929 346.940055,51.6571816 C344.676668,49.1946703 343.544974,45.6495032 343.544974,41.0216802 L343.544974,41.0216802 L343.544974,13.7642276 L337.98351,13.7642276 L337.98351,40.5758807 C337.98351,46.7746161 339.610993,51.5616531 342.865958,54.9369919 C346.120924,58.3123306 350.723144,60 356.672618,60 Z M406.52004,60 C411.434822,60 415.455028,58.75813 418.580658,56.2743902 C421.706288,53.7906504 423.269102,50.6169828 423.269102,46.7533875 C423.269102,43.4841915 422.331413,40.8943089 420.456035,38.9837398 C418.580658,37.0731708 415.638255,35.7145438 411.628827,34.9078591 L411.628827,34.9078591 L402.57528,33.0609756 C399.471206,32.4665763 397.326377,31.638663 396.140794,30.5772358 C394.95521,29.5158085 394.362419,27.9448961 394.362419,25.8644986 C394.362419,23.3595302 395.34322,21.3215899 397.304821,19.7506775 C399.266424,18.1797651 401.863929,17.3943089 405.097339,17.3943089 C408.416973,17.3943089 411.133037,18.1054652 413.245531,19.5277778 C415.358026,20.9500903 416.608278,22.9137308 416.996287,25.4186992 L416.996287,25.4186992 L422.363747,25.4186992 C421.932626,21.4277326 420.208141,18.3602078 417.190291,16.2161247 C414.172442,14.0720416 410.119902,13 405.03267,13 C400.333448,13 396.474913,14.2312556 393.457064,16.6937669 C390.439215,19.1562783 388.93029,22.2768744 388.93029,26.0555555 C388.93029,29.2822945 389.889535,31.8721771 391.808025,33.8252033 C393.726515,35.7782294 396.690474,37.1156279 400.699902,37.8373984 L400.699902,37.8373984 L409.494776,39.5569106 C412.426401,40.1088528 414.560452,40.9686089 415.896928,42.1361789 C417.233404,43.3037489 417.901641,44.9277326 417.901641,47.00813 C417.901641,49.6404698 416.856173,51.7314815 414.765234,53.2811653 C412.674296,54.8308491 409.904341,55.6056911 406.455371,55.6056911 C402.359719,55.6056911 399.137087,54.7671635 396.787476,53.0901084 C394.437865,51.4130533 393.112166,48.9823848 392.810382,45.798103 L392.810382,45.798103 L387.442921,45.798103 C387.744706,50.2985546 389.58775,53.7906504 392.972053,56.2743902 C396.356354,58.75813 400.87235,60 406.52004,60 Z M467.749063,59.2357723 L467.749063,54.6504065 L442.011121,54.6504065 L442.011121,38.8563686 L464.838994,38.8563686 L464.838994,34.2073171 L442.011121,34.2073171 L442.011121,18.3495935 L467.684394,18.3495935 L467.684394,13.7642276 L436.514324,13.7642276 L436.514324,59.2357723 L467.749063,59.2357723 Z M498.066688,59.2357723 C504.792181,59.2357723 510.224309,57.1447606 514.363074,52.9627372 C518.501839,48.7807136 520.571221,43.2931346 520.571221,36.5 C520.571221,29.7068654 518.501839,24.2192864 514.363074,20.0372628 C510.224309,15.8552394 504.792181,13.7642276 498.066688,13.7642276 L498.066688,13.7642276 L481.705635,13.7642276 L481.705635,59.2357723 L498.066688,59.2357723 Z M498.066688,54.6504065 L487.202432,54.6504065 L487.202432,18.3495935 L498.066688,18.3495935 C503.283257,18.3495935 507.378908,19.9629629 510.353646,23.1897019 C513.328383,26.4164408 514.815751,30.8532069 514.815751,36.5 C514.815751,42.1467931 513.339161,46.5835592 510.38598,49.8102981 C507.432798,53.0370371 503.326369,54.6504065 498.066688,54.6504065 L498.066688,54.6504065 Z M570.53622,59.2357723 L570.53622,18.3495935 L587.802628,18.3495935 L587.802628,13.7642276 L547.773015,13.7642276 L547.773015,18.3495935 L564.974755,18.3495935 L564.974755,59.2357723 L570.53622,59.2357723 Z M631.312566,59.2357723 L631.312566,54.6504065 L605.574624,54.6504065 L605.574624,38.8563686 L628.402497,38.8563686 L628.402497,34.2073171 L605.574624,34.2073171 L605.574624,18.3495935 L631.247898,18.3495935 L631.247898,13.7642276 L600.077828,13.7642276 L600.077828,59.2357723 L631.312566,59.2357723 Z M661.371519,60 C666.286302,60 670.306508,58.75813 673.432138,56.2743902 C676.557767,53.7906504 678.120582,50.6169828 678.120582,46.7533875 C678.120582,43.4841915 677.182893,40.8943089 675.307515,38.9837398 C673.432138,37.0731708 670.489734,35.7145438 666.480306,34.9078591 L666.480306,34.9078591 L657.426759,33.0609756 C654.322686,32.4665763 652.177857,31.638663 650.992274,30.5772358 C649.80669,29.5158085 649.213898,27.9448961 649.213898,25.8644986 C649.213898,23.3595302 650.194699,21.3215899 652.156301,19.7506775 C654.117903,18.1797651 656.715409,17.3943089 659.948819,17.3943089 C663.268453,17.3943089 665.984517,18.1054652 668.097011,19.5277778 C670.209506,20.9500903 671.459757,22.9137308 671.847767,25.4186992 L671.847767,25.4186992 L677.215227,25.4186992 C676.784106,21.4277326 675.059621,18.3602078 672.041772,16.2161247 C669.023922,14.0720416 664.971382,13 659.884151,13 C655.184929,13 651.326392,14.2312556 648.308543,16.6937669 C645.290694,19.1562783 643.78177,22.2768744 643.78177,26.0555555 C643.78177,29.2822945 644.741015,31.8721771 646.659504,33.8252033 C648.577994,35.7782294 651.541953,37.1156279 655.551381,37.8373984 L655.551381,37.8373984 L664.346256,39.5569106 C667.277881,40.1088528 669.411932,40.9686089 670.748407,42.1361789 C672.084883,43.3037489 672.753122,44.9277326 672.753122,47.00813 C672.753122,49.6404698 671.707652,51.7314815 669.616714,53.2811653 C667.525776,54.8308491 664.755822,55.6056911 661.306851,55.6056911 C657.211198,55.6056911 653.988567,54.7671635 651.638956,53.0901084 C649.289345,51.4130533 647.963647,48.9823848 647.661862,45.798103 L647.661862,45.798103 L642.294402,45.798103 C642.596186,50.2985546 644.43923,53.7906504 647.823532,56.2743902 C651.207835,58.75813 655.72383,60 661.371519,60 Z M721.759856,59.2357723 L721.759856,54.6504065 L696.927268,54.6504065 L696.927268,13.7642276 L691.365804,13.7642276 L691.365804,59.2357723 L721.759856,59.2357723 Z M735.845765,59.2357723 L740.954552,46.5623306 L763.071075,46.5623306 L768.179862,59.2357723 L774,59.2357723 L755.246223,13.7642276 L748.973408,13.7642276 L730.2843,59.2357723 L735.845765,59.2357723 Z M761.260366,42.0406504 L742.765261,42.0406504 L751.948146,19.2411924 L752.14215,19.2411924 L761.260366,42.0406504 Z" id="ONLYUSEDTESLA" fill="#FFFFFF"></path>
            </g>
        </g>
    </g>
</svg>